<mxfile host="app.diagrams.net" modified="2022-12-05T20:02:58.138Z" agent="5.0 (Macintosh; Intel Mac OS X 10_15_7) AppleWebKit/537.36 (KHTML, like Gecko) Chrome/107.0.0.0 Safari/537.36" etag="4uNoUPP6s3yPXAerNy3t" version="20.6.0" type="github" pages="3">
  <diagram id="R0CkP3Aokau35Uq6mjA0" name="Casos de prueba">
    <mxGraphModel dx="1393" dy="629" grid="1" gridSize="10" guides="1" tooltips="1" connect="1" arrows="1" fold="1" page="1" pageScale="1" pageWidth="850" pageHeight="1100" math="0" shadow="0">
      <root>
        <mxCell id="0" />
        <mxCell id="1" parent="0" />
      </root>
    </mxGraphModel>
  </diagram>
  <diagram id="nc3lyRczdIfySvWgQns6" name="PresentaciÃ³n en vivo">
    <mxGraphModel dx="1277" dy="577" grid="1" gridSize="10" guides="1" tooltips="1" connect="1" arrows="1" fold="1" page="1" pageScale="1" pageWidth="850" pageHeight="1100" math="0" shadow="0">
      <root>
        <mxCell id="0" />
        <mxCell id="1" parent="0" />
        <mxCell id="q9SrDoaNrL7tp-AZ02wT-1" value="" style="edgeStyle=orthogonalEdgeStyle;rounded=0;orthogonalLoop=1;jettySize=auto;html=1;" parent="1" source="q9SrDoaNrL7tp-AZ02wT-2" target="q9SrDoaNrL7tp-AZ02wT-6" edge="1">
          <mxGeometry relative="1" as="geometry" />
        </mxCell>
        <mxCell id="q9SrDoaNrL7tp-AZ02wT-2" value="C1" style="rounded=1;whiteSpace=wrap;html=1;align=left;fillColor=#dae8fc;strokeColor=#6c8ebf;" parent="1" vertex="1">
          <mxGeometry x="140" y="80" width="300" height="210" as="geometry" />
        </mxCell>
        <mxCell id="q9SrDoaNrL7tp-AZ02wT-3" value="C1S1" style="rounded=1;whiteSpace=wrap;html=1;verticalAlign=top;fillColor=#d5e8d4;strokeColor=#82b366;" parent="1" vertex="1">
          <mxGeometry x="180" y="90" width="100" height="180" as="geometry" />
        </mxCell>
        <mxCell id="q9SrDoaNrL7tp-AZ02wT-4" value="Cheque" style="sketch=0;outlineConnect=0;fontColor=#232F3E;gradientColor=none;fillColor=#D45B07;strokeColor=none;dashed=0;verticalLabelPosition=bottom;verticalAlign=top;align=center;html=1;fontSize=12;fontStyle=0;aspect=fixed;pointerEvents=1;shape=mxgraph.aws4.container_registry_image;" parent="1" vertex="1">
          <mxGeometry x="211" y="115" width="48" height="48" as="geometry" />
        </mxCell>
        <mxCell id="q9SrDoaNrL7tp-AZ02wT-5" value="Firma" style="shape=image;html=1;verticalAlign=top;verticalLabelPosition=bottom;labelBackgroundColor=#ffffff;imageAspect=0;aspect=fixed;image=https://cdn3.iconfinder.com/data/icons/lovely/PNG/128/Register.png" parent="1" vertex="1">
          <mxGeometry x="221" y="193" width="28" height="28" as="geometry" />
        </mxCell>
        <mxCell id="q9SrDoaNrL7tp-AZ02wT-6" value="Cheques escala de grises" style="rounded=1;whiteSpace=wrap;html=1;align=center;" parent="1" vertex="1">
          <mxGeometry x="520" y="167.5" width="210" height="35" as="geometry" />
        </mxCell>
        <mxCell id="q9SrDoaNrL7tp-AZ02wT-7" value="C1S2" style="rounded=1;whiteSpace=wrap;html=1;verticalAlign=top;fillColor=#d5e8d4;strokeColor=#82b366;" parent="1" vertex="1">
          <mxGeometry x="310" y="90" width="100" height="180" as="geometry" />
        </mxCell>
        <mxCell id="q9SrDoaNrL7tp-AZ02wT-8" value="Cheque" style="sketch=0;outlineConnect=0;fontColor=#232F3E;gradientColor=none;fillColor=#D45B07;strokeColor=none;dashed=0;verticalLabelPosition=bottom;verticalAlign=top;align=center;html=1;fontSize=12;fontStyle=0;aspect=fixed;pointerEvents=1;shape=mxgraph.aws4.container_registry_image;" parent="1" vertex="1">
          <mxGeometry x="341" y="120" width="43" height="43" as="geometry" />
        </mxCell>
        <mxCell id="q9SrDoaNrL7tp-AZ02wT-9" value="Firma" style="shape=image;html=1;verticalAlign=top;verticalLabelPosition=bottom;labelBackgroundColor=#ffffff;imageAspect=0;aspect=fixed;image=https://cdn3.iconfinder.com/data/icons/lovely/PNG/128/Register.png" parent="1" vertex="1">
          <mxGeometry x="351" y="193" width="28" height="28" as="geometry" />
        </mxCell>
        <mxCell id="q9SrDoaNrL7tp-AZ02wT-10" value="" style="edgeStyle=orthogonalEdgeStyle;rounded=0;orthogonalLoop=1;jettySize=auto;html=1;" parent="1" source="q9SrDoaNrL7tp-AZ02wT-11" target="q9SrDoaNrL7tp-AZ02wT-27" edge="1">
          <mxGeometry relative="1" as="geometry" />
        </mxCell>
        <mxCell id="q9SrDoaNrL7tp-AZ02wT-11" value="C2" style="rounded=1;whiteSpace=wrap;html=1;align=left;fillColor=#dae8fc;strokeColor=#6c8ebf;" parent="1" vertex="1">
          <mxGeometry x="140" y="300" width="300" height="210" as="geometry" />
        </mxCell>
        <mxCell id="q9SrDoaNrL7tp-AZ02wT-12" value="C2S1" style="rounded=1;whiteSpace=wrap;html=1;verticalAlign=top;fillColor=#d5e8d4;strokeColor=#82b366;" parent="1" vertex="1">
          <mxGeometry x="180" y="310" width="100" height="180" as="geometry" />
        </mxCell>
        <mxCell id="q9SrDoaNrL7tp-AZ02wT-13" value="Cheque" style="sketch=0;outlineConnect=0;fontColor=#232F3E;gradientColor=none;fillColor=#D45B07;strokeColor=none;dashed=0;verticalLabelPosition=bottom;verticalAlign=top;align=center;html=1;fontSize=12;fontStyle=0;aspect=fixed;pointerEvents=1;shape=mxgraph.aws4.container_registry_image;" parent="1" vertex="1">
          <mxGeometry x="211" y="335" width="48" height="48" as="geometry" />
        </mxCell>
        <mxCell id="q9SrDoaNrL7tp-AZ02wT-14" value="Firma" style="shape=image;html=1;verticalAlign=top;verticalLabelPosition=bottom;labelBackgroundColor=#ffffff;imageAspect=0;aspect=fixed;image=https://cdn3.iconfinder.com/data/icons/lovely/PNG/128/Register.png" parent="1" vertex="1">
          <mxGeometry x="221" y="413" width="28" height="28" as="geometry" />
        </mxCell>
        <mxCell id="q9SrDoaNrL7tp-AZ02wT-15" value="C2S2" style="rounded=1;whiteSpace=wrap;html=1;verticalAlign=top;fillColor=#d5e8d4;strokeColor=#82b366;" parent="1" vertex="1">
          <mxGeometry x="310" y="310" width="100" height="180" as="geometry" />
        </mxCell>
        <mxCell id="q9SrDoaNrL7tp-AZ02wT-16" value="Cheque" style="sketch=0;outlineConnect=0;fontColor=#232F3E;gradientColor=none;fillColor=#D45B07;strokeColor=none;dashed=0;verticalLabelPosition=bottom;verticalAlign=top;align=center;html=1;fontSize=12;fontStyle=0;aspect=fixed;pointerEvents=1;shape=mxgraph.aws4.container_registry_image;" parent="1" vertex="1">
          <mxGeometry x="341" y="340" width="43" height="43" as="geometry" />
        </mxCell>
        <mxCell id="q9SrDoaNrL7tp-AZ02wT-17" value="Firma" style="shape=image;html=1;verticalAlign=top;verticalLabelPosition=bottom;labelBackgroundColor=#ffffff;imageAspect=0;aspect=fixed;image=https://cdn3.iconfinder.com/data/icons/lovely/PNG/128/Register.png" parent="1" vertex="1">
          <mxGeometry x="351" y="413" width="28" height="28" as="geometry" />
        </mxCell>
        <mxCell id="q9SrDoaNrL7tp-AZ02wT-18" value="" style="edgeStyle=orthogonalEdgeStyle;rounded=0;orthogonalLoop=1;jettySize=auto;html=1;" parent="1" source="q9SrDoaNrL7tp-AZ02wT-19" target="q9SrDoaNrL7tp-AZ02wT-26" edge="1">
          <mxGeometry relative="1" as="geometry" />
        </mxCell>
        <mxCell id="q9SrDoaNrL7tp-AZ02wT-19" value="C3" style="rounded=1;whiteSpace=wrap;html=1;align=left;fillColor=#dae8fc;strokeColor=#6c8ebf;" parent="1" vertex="1">
          <mxGeometry x="140" y="530" width="300" height="210" as="geometry" />
        </mxCell>
        <mxCell id="q9SrDoaNrL7tp-AZ02wT-20" value="C3S1" style="rounded=1;whiteSpace=wrap;html=1;verticalAlign=top;fillColor=#d5e8d4;strokeColor=#82b366;" parent="1" vertex="1">
          <mxGeometry x="180" y="540" width="100" height="180" as="geometry" />
        </mxCell>
        <mxCell id="q9SrDoaNrL7tp-AZ02wT-21" value="Cheque" style="sketch=0;outlineConnect=0;fontColor=#232F3E;gradientColor=none;fillColor=#D45B07;strokeColor=none;dashed=0;verticalLabelPosition=bottom;verticalAlign=top;align=center;html=1;fontSize=12;fontStyle=0;aspect=fixed;pointerEvents=1;shape=mxgraph.aws4.container_registry_image;" parent="1" vertex="1">
          <mxGeometry x="211" y="565" width="48" height="48" as="geometry" />
        </mxCell>
        <mxCell id="q9SrDoaNrL7tp-AZ02wT-22" value="Firma" style="shape=image;html=1;verticalAlign=top;verticalLabelPosition=bottom;labelBackgroundColor=#ffffff;imageAspect=0;aspect=fixed;image=https://cdn3.iconfinder.com/data/icons/lovely/PNG/128/Register.png" parent="1" vertex="1">
          <mxGeometry x="221" y="643" width="28" height="28" as="geometry" />
        </mxCell>
        <mxCell id="q9SrDoaNrL7tp-AZ02wT-23" value="C3S2" style="rounded=1;whiteSpace=wrap;html=1;verticalAlign=top;fillColor=#d5e8d4;strokeColor=#82b366;" parent="1" vertex="1">
          <mxGeometry x="310" y="540" width="100" height="180" as="geometry" />
        </mxCell>
        <mxCell id="q9SrDoaNrL7tp-AZ02wT-24" value="Cheque" style="sketch=0;outlineConnect=0;fontColor=#232F3E;gradientColor=none;fillColor=#D45B07;strokeColor=none;dashed=0;verticalLabelPosition=bottom;verticalAlign=top;align=center;html=1;fontSize=12;fontStyle=0;aspect=fixed;pointerEvents=1;shape=mxgraph.aws4.container_registry_image;" parent="1" vertex="1">
          <mxGeometry x="341" y="570" width="43" height="43" as="geometry" />
        </mxCell>
        <mxCell id="q9SrDoaNrL7tp-AZ02wT-25" value="Firma" style="shape=image;html=1;verticalAlign=top;verticalLabelPosition=bottom;labelBackgroundColor=#ffffff;imageAspect=0;aspect=fixed;image=https://cdn3.iconfinder.com/data/icons/lovely/PNG/128/Register.png" parent="1" vertex="1">
          <mxGeometry x="351" y="643" width="28" height="28" as="geometry" />
        </mxCell>
        <mxCell id="q9SrDoaNrL7tp-AZ02wT-26" value="Cheques a color" style="rounded=1;whiteSpace=wrap;html=1;align=left;fillColor=#dae8fc;strokeColor=#6c8ebf;" parent="1" vertex="1">
          <mxGeometry x="520" y="615" width="210" height="40" as="geometry" />
        </mxCell>
        <mxCell id="q9SrDoaNrL7tp-AZ02wT-27" value="Papeletas" style="rounded=1;whiteSpace=wrap;html=1;align=left;fillColor=#dae8fc;strokeColor=#6c8ebf;" parent="1" vertex="1">
          <mxGeometry x="520" y="385" width="210" height="40" as="geometry" />
        </mxCell>
        <mxCell id="q9SrDoaNrL7tp-AZ02wT-28" value="" style="edgeStyle=orthogonalEdgeStyle;rounded=0;orthogonalLoop=1;jettySize=auto;html=1;" parent="1" source="q9SrDoaNrL7tp-AZ02wT-29" target="q9SrDoaNrL7tp-AZ02wT-36" edge="1">
          <mxGeometry relative="1" as="geometry" />
        </mxCell>
        <mxCell id="q9SrDoaNrL7tp-AZ02wT-29" value="C4" style="rounded=1;whiteSpace=wrap;html=1;align=left;fillColor=#dae8fc;strokeColor=#6c8ebf;" parent="1" vertex="1">
          <mxGeometry x="140" y="770" width="300" height="210" as="geometry" />
        </mxCell>
        <mxCell id="q9SrDoaNrL7tp-AZ02wT-30" value="C4S1" style="rounded=1;whiteSpace=wrap;html=1;verticalAlign=top;fillColor=#d5e8d4;strokeColor=#82b366;" parent="1" vertex="1">
          <mxGeometry x="180" y="780" width="100" height="180" as="geometry" />
        </mxCell>
        <mxCell id="q9SrDoaNrL7tp-AZ02wT-31" value="Cheque" style="sketch=0;outlineConnect=0;fontColor=#232F3E;gradientColor=none;fillColor=#D45B07;strokeColor=none;dashed=0;verticalLabelPosition=bottom;verticalAlign=top;align=center;html=1;fontSize=12;fontStyle=0;aspect=fixed;pointerEvents=1;shape=mxgraph.aws4.container_registry_image;" parent="1" vertex="1">
          <mxGeometry x="211" y="805" width="48" height="48" as="geometry" />
        </mxCell>
        <mxCell id="q9SrDoaNrL7tp-AZ02wT-32" value="Firma" style="shape=image;html=1;verticalAlign=top;verticalLabelPosition=bottom;labelBackgroundColor=#ffffff;imageAspect=0;aspect=fixed;image=https://cdn3.iconfinder.com/data/icons/lovely/PNG/128/Register.png" parent="1" vertex="1">
          <mxGeometry x="221" y="883" width="28" height="28" as="geometry" />
        </mxCell>
        <mxCell id="q9SrDoaNrL7tp-AZ02wT-33" value="C4S2" style="rounded=1;whiteSpace=wrap;html=1;verticalAlign=top;fillColor=#d5e8d4;strokeColor=#82b366;" parent="1" vertex="1">
          <mxGeometry x="310" y="780" width="100" height="180" as="geometry" />
        </mxCell>
        <mxCell id="q9SrDoaNrL7tp-AZ02wT-34" value="Cheque" style="sketch=0;outlineConnect=0;fontColor=#232F3E;gradientColor=none;fillColor=#D45B07;strokeColor=none;dashed=0;verticalLabelPosition=bottom;verticalAlign=top;align=center;html=1;fontSize=12;fontStyle=0;aspect=fixed;pointerEvents=1;shape=mxgraph.aws4.container_registry_image;" parent="1" vertex="1">
          <mxGeometry x="341" y="810" width="43" height="43" as="geometry" />
        </mxCell>
        <mxCell id="q9SrDoaNrL7tp-AZ02wT-35" value="Firma" style="shape=image;html=1;verticalAlign=top;verticalLabelPosition=bottom;labelBackgroundColor=#ffffff;imageAspect=0;aspect=fixed;image=https://cdn3.iconfinder.com/data/icons/lovely/PNG/128/Register.png" parent="1" vertex="1">
          <mxGeometry x="351" y="883" width="28" height="28" as="geometry" />
        </mxCell>
        <mxCell id="q9SrDoaNrL7tp-AZ02wT-36" value="Retiros de treceros escala de grises" style="rounded=1;whiteSpace=wrap;html=1;align=left;fillColor=#dae8fc;strokeColor=#6c8ebf;" parent="1" vertex="1">
          <mxGeometry x="520" y="855" width="210" height="40" as="geometry" />
        </mxCell>
        <mxCell id="q9SrDoaNrL7tp-AZ02wT-37" value="10 Ejemplos" style="rounded=1;whiteSpace=wrap;html=1;" parent="1" vertex="1">
          <mxGeometry x="80" y="70" width="80" height="35" as="geometry" />
        </mxCell>
        <mxCell id="q9SrDoaNrL7tp-AZ02wT-38" value="10 Ejemplos" style="rounded=1;whiteSpace=wrap;html=1;" parent="1" vertex="1">
          <mxGeometry x="80" y="300" width="80" height="35" as="geometry" />
        </mxCell>
        <mxCell id="q9SrDoaNrL7tp-AZ02wT-39" value="10 Ejemplos" style="rounded=1;whiteSpace=wrap;html=1;" parent="1" vertex="1">
          <mxGeometry x="80" y="515" width="80" height="35" as="geometry" />
        </mxCell>
        <mxCell id="q9SrDoaNrL7tp-AZ02wT-40" value="10 Ejemplos" style="rounded=1;whiteSpace=wrap;html=1;" parent="1" vertex="1">
          <mxGeometry x="80" y="760" width="80" height="35" as="geometry" />
        </mxCell>
      </root>
    </mxGraphModel>
  </diagram>
  <diagram id="EXg1674rUhQGCDQsIF4u" name="Escenario">
    <mxGraphModel dx="1393" dy="629" grid="1" gridSize="10" guides="1" tooltips="1" connect="1" arrows="1" fold="1" page="1" pageScale="1" pageWidth="850" pageHeight="1100" math="0" shadow="0">
      <root>
        <mxCell id="0" />
        <mxCell id="1" parent="0" />
      </root>
    </mxGraphModel>
  </diagram>
</mxfile>
